<?xml version="1.0" encoding="UTF-8"?><svg id="_이어_2" xmlns="http://www.w3.org/2000/svg" viewBox="0 0 274.14 244.26"><defs><style>.cls-1{fill:#fff;}</style></defs><g id="_이어_2-2"><g><rect class="cls-1" width="274.14" height="244.26"/><g><path d="M44.1,112.61h6.84v27.81c0,5.06-1.25,8.69-3.76,10.92-2.51,2.22-6.16,3.33-10.94,3.33-1.69,0-3.27-.17-4.77-.52s-2.82-.9-3.99-1.67c-1.17-.77-2.14-1.75-2.9-2.96-.77-1.21-1.28-2.65-1.55-4.34h6.78c.31,1.46,.97,2.5,1.98,3.13,1.01,.63,2.56,.95,4.62,.95,1.53,0,2.8-.2,3.79-.6,1-.4,1.78-.95,2.36-1.64,.57-.69,.98-1.49,1.21-2.38,.23-.9,.34-1.85,.34-2.84v-3.62c-.92,1.53-2.16,2.72-3.73,3.56-1.57,.84-3.39,1.26-5.46,1.26-1.88,0-3.63-.35-5.26-1.06-1.63-.71-3.04-1.74-4.22-3.1-1.19-1.36-2.12-3-2.79-4.91-.67-1.91-1.01-4.08-1.01-6.49s.33-4.58,1.01-6.49c.67-1.92,1.6-3.54,2.79-4.88,1.19-1.34,2.59-2.36,4.22-3.07,1.63-.71,3.38-1.06,5.26-1.06,2.07,0,3.89,.42,5.46,1.26,1.57,.84,2.81,2.03,3.73,3.56v-4.14Zm.29,14.82c0-1.72-.21-3.22-.63-4.48-.42-1.26-.99-2.31-1.69-3.13-.71-.82-1.55-1.44-2.53-1.84-.98-.4-2.02-.6-3.13-.6-2.41,0-4.29,.9-5.63,2.7-1.34,1.8-2.01,4.25-2.01,7.35s.67,5.67,2.01,7.47c1.34,1.8,3.22,2.7,5.63,2.7,1.11,0,2.15-.2,3.13-.6,.98-.4,1.82-1.02,2.53-1.87,.71-.84,1.27-1.91,1.69-3.19,.42-1.28,.63-2.79,.63-4.51Z"/><path d="M74.22,119.57c-1.15-.12-2.24-.17-3.27-.17s-2.03,.12-2.87,.37c-.84,.25-1.55,.67-2.13,1.26-.57,.59-1.02,1.41-1.32,2.44-.31,1.03-.46,2.32-.46,3.85v16.2h-6.84v-30.91h6.72v5.52c.84-1.72,1.98-3.07,3.42-4.05,1.44-.98,3.09-1.48,4.97-1.52,.27,0,.56,0,.89,.03,.32,.02,.62,.05,.89,.09v6.89Z"/><path d="M84.27,101.87v6.89h-6.84v-6.89h6.84Zm0,10.74v30.91h-6.84v-30.91h6.84Z"/><path d="M111.5,101.87h6.84v41.65h-6.84v-4.08c-.92,1.53-2.16,2.72-3.73,3.56-1.57,.84-3.39,1.26-5.46,1.26-1.88,0-3.63-.37-5.26-1.12-1.63-.75-3.04-1.83-4.22-3.25-1.19-1.42-2.12-3.12-2.79-5.11-.67-1.99-1.01-4.23-1.01-6.72s.33-4.67,1.01-6.67c.67-1.99,1.6-3.7,2.79-5.11,1.19-1.42,2.59-2.5,4.22-3.25,1.63-.75,3.38-1.12,5.26-1.12,2.07,0,3.89,.42,5.46,1.26,1.57,.84,2.82,2.03,3.73,3.56v-14.88Zm.29,26.2c0-1.76-.21-3.31-.63-4.65-.42-1.34-.99-2.44-1.69-3.3-.71-.86-1.55-1.51-2.53-1.95-.98-.44-2.02-.66-3.13-.66-2.41,0-4.29,.95-5.63,2.84-1.34,1.9-2.01,4.47-2.01,7.73s.67,5.89,2.01,7.78c1.34,1.9,3.22,2.84,5.63,2.84,1.11,0,2.15-.22,3.13-.66s1.82-1.1,2.53-1.98c.71-.88,1.27-1.98,1.69-3.3,.42-1.32,.63-2.88,.63-4.68Z"/><path d="M141.62,119.57c-1.15-.12-2.24-.17-3.28-.17s-2.03,.12-2.87,.37c-.84,.25-1.55,.67-2.13,1.26-.57,.59-1.02,1.41-1.32,2.44-.31,1.03-.46,2.32-.46,3.85v16.2h-6.84v-30.91h6.72v5.52c.84-1.72,1.98-3.07,3.42-4.05,1.44-.98,3.09-1.48,4.97-1.52,.27,0,.56,0,.89,.03,.33,.02,.62,.05,.89,.09v6.89Z"/><path d="M158.19,111.92c1.95,0,3.83,.33,5.63,.98,1.8,.65,3.4,1.64,4.8,2.96,1.4,1.32,2.52,3,3.36,5.03,.84,2.03,1.26,4.44,1.26,7.24s-.42,5.21-1.26,7.24c-.84,2.03-1.96,3.71-3.36,5.03-1.4,1.32-3,2.3-4.8,2.93-1.8,.63-3.68,.95-5.63,.95s-3.83-.32-5.63-.95c-1.8-.63-3.4-1.61-4.8-2.93-1.4-1.32-2.52-3-3.36-5.03-.84-2.03-1.26-4.44-1.26-7.24s.42-5.21,1.26-7.24c.84-2.03,1.96-3.71,3.36-5.03,1.4-1.32,3-2.31,4.8-2.96,1.8-.65,3.68-.98,5.63-.98Zm0,26.77c1.15,0,2.2-.22,3.16-.66,.96-.44,1.8-1.09,2.53-1.95,.73-.86,1.29-1.95,1.69-3.27s.6-2.88,.6-4.68-.2-3.31-.6-4.65c-.4-1.34-.97-2.45-1.69-3.33-.73-.88-1.57-1.54-2.53-1.98-.96-.44-2.01-.66-3.16-.66s-2.2,.22-3.16,.66c-.96,.44-1.8,1.1-2.53,1.98-.73,.88-1.29,1.99-1.69,3.33-.4,1.34-.6,2.89-.6,4.65s.2,3.36,.6,4.68c.4,1.32,.97,2.41,1.69,3.27,.73,.86,1.57,1.51,2.53,1.95,.96,.44,2.01,.66,3.16,.66Z"/><path d="M191.14,111.92c1.95,0,3.83,.33,5.63,.98,1.8,.65,3.4,1.64,4.8,2.96,1.4,1.32,2.52,3,3.36,5.03,.84,2.03,1.26,4.44,1.26,7.24s-.42,5.21-1.26,7.24c-.84,2.03-1.96,3.71-3.36,5.03-1.4,1.32-3,2.3-4.8,2.93-1.8,.63-3.68,.95-5.63,.95s-3.83-.32-5.63-.95c-1.8-.63-3.4-1.61-4.8-2.93-1.4-1.32-2.52-3-3.36-5.03-.84-2.03-1.26-4.44-1.26-7.24s.42-5.21,1.26-7.24c.84-2.03,1.96-3.71,3.36-5.03,1.4-1.32,3-2.31,4.8-2.96,1.8-.65,3.68-.98,5.63-.98Zm0,26.77c1.15,0,2.2-.22,3.16-.66,.96-.44,1.8-1.09,2.53-1.95,.73-.86,1.29-1.95,1.69-3.27s.6-2.88,.6-4.68-.2-3.31-.6-4.65c-.4-1.34-.97-2.45-1.69-3.33-.73-.88-1.57-1.54-2.53-1.98-.96-.44-2.01-.66-3.16-.66s-2.2,.22-3.16,.66c-.96,.44-1.8,1.1-2.53,1.98-.73,.88-1.29,1.99-1.69,3.33-.4,1.34-.6,2.89-.6,4.65s.2,3.36,.6,4.68c.4,1.32,.97,2.41,1.69,3.27,.73,.86,1.57,1.51,2.53,1.95,.96,.44,2.01,.66,3.16,.66Z"/><path d="M217.67,143.52h-6.84v-30.91h6.84v4.31c.88-1.61,2.08-2.84,3.59-3.71,1.51-.86,3.3-1.29,5.37-1.29,2.41,0,4.34,.48,5.77,1.44,1.44,.96,2.52,2.3,3.25,4.02,1.34-1.95,2.87-3.35,4.6-4.19s3.54-1.26,5.46-1.26,3.4,.29,4.68,.86c1.28,.57,2.33,1.4,3.13,2.47,.8,1.07,1.39,2.36,1.75,3.85,.36,1.49,.55,3.16,.55,5v19.42h-6.84v-17.75c0-1.03-.05-2.05-.14-3.04-.1-1-.33-1.89-.69-2.67-.36-.79-.91-1.41-1.64-1.87-.73-.46-1.72-.69-2.99-.69s-2.33,.24-3.19,.72c-.86,.48-1.56,1.14-2.1,1.98-.54,.84-.92,1.86-1.15,3.04-.23,1.19-.34,2.47-.34,3.85v16.43h-6.84v-17.75c0-1.03-.05-2.05-.14-3.04-.1-1-.33-1.89-.69-2.67s-.91-1.41-1.64-1.87c-.73-.46-1.72-.69-2.99-.69s-2.33,.24-3.19,.72c-.86,.48-1.56,1.14-2.1,1.98-.54,.84-.92,1.86-1.15,3.04-.23,1.19-.34,2.47-.34,3.85v16.43Z"/></g></g></g></svg>