<?xml version="1.0" encoding="utf-8"?>
<!-- Generator: Adobe Illustrator 26.3.1, SVG Export Plug-In . SVG Version: 6.00 Build 0)  -->
<svg version="1.1" id="_이어_2" xmlns="http://www.w3.org/2000/svg" xmlns:xlink="http://www.w3.org/1999/xlink" x="0px" y="0px"
	 viewBox="0 0 416 688.6" style="enable-background:new 0 0 416 688.6;" xml:space="preserve">
<g id="_이어_1-2">
	<path d="M208.5,688.6c-27.9,0-54.7-4.2-79.8-12.4c-25.1-8.3-47.4-20.8-66.5-37.3c-19.1-16.5-34.4-37.5-45.5-62.2
		C5.6,551.8,0,522.2,0,488.6v-1.5h113.1v1.5c0,15.6,2.7,29.3,7.9,40.7c5.3,11.5,12.4,21.2,21,28.9c8.7,7.7,18.9,13.7,30.4,17.8
		c11.5,4,23.6,6.1,36.1,6.1c12.4,0,24.4-1.9,35.6-5.6c11.1-3.7,21.2-9.7,29.8-17.7c8.6-8,15.5-18.5,20.5-31.2
		c5-12.8,7.5-28.4,7.5-46.5V0h114.1v490.5c0,34.9-5.8,65.3-17.2,90.4c-11.4,25.1-26.9,45.9-46,61.8c-19.1,15.9-41.3,27.6-66.1,34.9
		C262,684.9,235.7,688.6,208.5,688.6z M3,490.1c0.2,32.6,5.7,61.2,16.5,85.2c10.9,24.4,26,45,44.7,61.2
		c18.8,16.3,40.8,28.6,65.5,36.7c24.8,8.1,51.3,12.3,78.8,12.3c26.9,0,53-3.7,77.4-10.8c24.4-7.2,46.2-18.8,65-34.4
		c18.7-15.6,33.9-36,45.2-60.7c11.3-24.7,17-54.7,17-89.1V3H305v478c0,18.4-2.6,34.4-7.7,47.5c-5.1,13.1-12.3,24-21.3,32.4
		c-9,8.3-19.4,14.5-30.9,18.4c-11.5,3.8-23.8,5.8-36.6,5.8c-12.8,0-25.3-2.1-37.1-6.3c-11.9-4.2-22.4-10.3-31.4-18.3
		c-9-8-16.3-18.1-21.7-29.9c-5.3-11.5-8-25-8.2-40.4H3z"/>
</g>
</svg>
