<?xml version="1.0" encoding="UTF-8"?><svg id="_이어_2" xmlns="http://www.w3.org/2000/svg" viewBox="0 0 416.05 688.58"><defs><style>.cls-1{fill:none;stroke:#fff;stroke-miterlimit:10;stroke-width:3px;}</style></defs><g id="_이어_1-2"><path class="cls-1" d="M208.5,687.08c-27.86,0-54.29-4.12-79.29-12.33-25-8.23-47-20.58-65.99-37.04s-34.03-37.04-45.1-61.73c-11.07-24.69-16.61-53.81-16.61-87.36H111.64c0,15.83,2.68,29.61,8.07,41.31s12.51,21.52,21.37,29.43c8.86,7.92,19.15,13.93,30.87,18.05,11.7,4.12,23.9,6.17,36.56,6.17s24.68-1.9,36.08-5.7c11.4-3.8,21.53-9.82,30.39-18.05,8.86-8.23,15.82-18.83,20.89-31.8,5.06-12.97,7.6-28.64,7.6-47V1.5h111.09V490.52c0,34.82-5.7,64.73-17.09,89.74-11.4,25-26.59,45.42-45.58,61.25-19,15.83-40.84,27.38-65.53,34.66-24.69,7.26-50.64,10.91-77.86,10.91Z"/></g></svg>