<svg xmlns="http://www.w3.org/2000/svg" xml:space="preserve" xmlns:xlink="http://www.w3.org/1999/xlink" style="max-width: 100%;height: auto;" width="990" height="990" viewBox="0 0 990 990">
<defs><mask id="qrmask"><g fill="#ffffff"><g>
<g transform="translate(220,44) scale(3.7766666666667)"><rect width="6" height="6"/></g>
<g transform="translate(286,44) scale(3.7766666666667)"><rect width="6" height="6"/></g>
<g transform="translate(330,44) scale(3.7766666666667)"><rect width="6" height="6"/></g>
<g transform="translate(594,44) scale(3.7766666666667)"><rect width="6" height="6"/></g>
<g transform="translate(660,44) scale(3.7766666666667)"><rect width="6" height="6"/></g>
<g transform="translate(726,44) scale(3.7766666666667)"><rect width="6" height="6"/></g>
<g transform="translate(220,66) scale(3.7766666666667)"><rect width="6" height="6"/></g>
<g transform="translate(242,66) scale(3.7766666666667)"><rect width="6" height="6"/></g>
<g transform="translate(286,66) scale(3.7766666666667)"><rect width="6" height="6"/></g>
<g transform="translate(308,66) scale(3.7766666666667)"><rect width="6" height="6"/></g>
<g transform="translate(330,66) scale(3.7766666666667)"><rect width="6" height="6"/></g>
<g transform="translate(418,66) scale(3.7766666666667)"><rect width="6" height="6"/></g>
<g transform="translate(484,66) scale(3.7766666666667)"><rect width="6" height="6"/></g>
<g transform="translate(506,66) scale(3.7766666666667)"><rect width="6" height="6"/></g>
<g transform="translate(594,66) scale(3.7766666666667)"><rect width="6" height="6"/></g>
<g transform="translate(616,66) scale(3.7766666666667)"><rect width="6" height="6"/></g>
<g transform="translate(638,66) scale(3.7766666666667)"><rect width="6" height="6"/></g>
<g transform="translate(704,66) scale(3.7766666666667)"><rect width="6" height="6"/></g>
<g transform="translate(220,88) scale(3.7766666666667)"><rect width="6" height="6"/></g>
<g transform="translate(242,88) scale(3.7766666666667)"><rect width="6" height="6"/></g>
<g transform="translate(264,88) scale(3.7766666666667)"><rect width="6" height="6"/></g>
<g transform="translate(286,88) scale(3.7766666666667)"><rect width="6" height="6"/></g>
<g transform="translate(308,88) scale(3.7766666666667)"><rect width="6" height="6"/></g>
<g transform="translate(330,88) scale(3.7766666666667)"><rect width="6" height="6"/></g>
<g transform="translate(418,88) scale(3.7766666666667)"><rect width="6" height="6"/></g>
<g transform="translate(440,88) scale(3.7766666666667)"><rect width="6" height="6"/></g>
<g transform="translate(462,88) scale(3.7766666666667)"><rect width="6" height="6"/></g>
<g transform="translate(528,88) scale(3.7766666666667)"><rect width="6" height="6"/></g>
<g transform="translate(572,88) scale(3.7766666666667)"><rect width="6" height="6"/></g>
<g transform="translate(594,88) scale(3.7766666666667)"><rect width="6" height="6"/></g>
<g transform="translate(660,88) scale(3.7766666666667)"><rect width="6" height="6"/></g>
<g transform="translate(748,88) scale(3.7766666666667)"><rect width="6" height="6"/></g>
<g transform="translate(242,110) scale(3.7766666666667)"><rect width="6" height="6"/></g>
<g transform="translate(264,110) scale(3.7766666666667)"><rect width="6" height="6"/></g>
<g transform="translate(286,110) scale(3.7766666666667)"><rect width="6" height="6"/></g>
<g transform="translate(308,110) scale(3.7766666666667)"><rect width="6" height="6"/></g>
<g transform="translate(330,110) scale(3.7766666666667)"><rect width="6" height="6"/></g>
<g transform="translate(352,110) scale(3.7766666666667)"><rect width="6" height="6"/></g>
<g transform="translate(374,110) scale(3.7766666666667)"><rect width="6" height="6"/></g>
<g transform="translate(396,110) scale(3.7766666666667)"><rect width="6" height="6"/></g>
<g transform="translate(506,110) scale(3.7766666666667)"><rect width="6" height="6"/></g>
<g transform="translate(528,110) scale(3.7766666666667)"><rect width="6" height="6"/></g>
<g transform="translate(572,110) scale(3.7766666666667)"><rect width="6" height="6"/></g>
<g transform="translate(616,110) scale(3.7766666666667)"><rect width="6" height="6"/></g>
<g transform="translate(660,110) scale(3.7766666666667)"><rect width="6" height="6"/></g>
<g transform="translate(704,110) scale(3.7766666666667)"><rect width="6" height="6"/></g>
<g transform="translate(748,110) scale(3.7766666666667)"><rect width="6" height="6"/></g>
<g transform="translate(286,132) scale(3.7766666666667)"><rect width="6" height="6"/></g>
<g transform="translate(308,132) scale(3.7766666666667)"><rect width="6" height="6"/></g>
<g transform="translate(352,132) scale(3.7766666666667)"><rect width="6" height="6"/></g>
<g transform="translate(396,132) scale(3.7766666666667)"><rect width="6" height="6"/></g>
<g transform="translate(484,132) scale(3.7766666666667)"><rect width="6" height="6"/></g>
<g transform="translate(528,132) scale(3.7766666666667)"><rect width="6" height="6"/></g>
<g transform="translate(550,132) scale(3.7766666666667)"><rect width="6" height="6"/></g>
<g transform="translate(594,132) scale(3.7766666666667)"><rect width="6" height="6"/></g>
<g transform="translate(660,132) scale(3.7766666666667)"><rect width="6" height="6"/></g>
<g transform="translate(682,132) scale(3.7766666666667)"><rect width="6" height="6"/></g>
<g transform="translate(704,132) scale(3.7766666666667)"><rect width="6" height="6"/></g>
<g transform="translate(726,132) scale(3.7766666666667)"><rect width="6" height="6"/></g>
<g transform="translate(748,132) scale(3.7766666666667)"><rect width="6" height="6"/></g>
<g transform="translate(220,154) scale(3.7766666666667)"><rect width="6" height="6"/></g>
<g transform="translate(264,154) scale(3.7766666666667)"><rect width="6" height="6"/></g>
<g transform="translate(286,154) scale(3.7766666666667)"><rect width="6" height="6"/></g>
<g transform="translate(308,154) scale(3.7766666666667)"><rect width="6" height="6"/></g>
<g transform="translate(374,154) scale(3.7766666666667)"><rect width="6" height="6"/></g>
<g transform="translate(418,154) scale(3.7766666666667)"><rect width="6" height="6"/></g>
<g transform="translate(440,154) scale(3.7766666666667)"><rect width="6" height="6"/></g>
<g transform="translate(462,154) scale(3.7766666666667)"><rect width="6" height="6"/></g>
<g transform="translate(484,154) scale(3.7766666666667)"><rect width="6" height="6"/></g>
<g transform="translate(528,154) scale(3.7766666666667)"><rect width="6" height="6"/></g>
<g transform="translate(550,154) scale(3.7766666666667)"><rect width="6" height="6"/></g>
<g transform="translate(616,154) scale(3.7766666666667)"><rect width="6" height="6"/></g>
<g transform="translate(638,154) scale(3.7766666666667)"><rect width="6" height="6"/></g>
<g transform="translate(682,154) scale(3.7766666666667)"><rect width="6" height="6"/></g>
<g transform="translate(704,154) scale(3.7766666666667)"><rect width="6" height="6"/></g>
<g transform="translate(220,176) scale(3.7766666666667)"><rect width="6" height="6"/></g>
<g transform="translate(264,176) scale(3.7766666666667)"><rect width="6" height="6"/></g>
<g transform="translate(308,176) scale(3.7766666666667)"><rect width="6" height="6"/></g>
<g transform="translate(352,176) scale(3.7766666666667)"><rect width="6" height="6"/></g>
<g transform="translate(396,176) scale(3.7766666666667)"><rect width="6" height="6"/></g>
<g transform="translate(440,176) scale(3.7766666666667)"><rect width="6" height="6"/></g>
<g transform="translate(484,176) scale(3.7766666666667)"><rect width="6" height="6"/></g>
<g transform="translate(528,176) scale(3.7766666666667)"><rect width="6" height="6"/></g>
<g transform="translate(572,176) scale(3.7766666666667)"><rect width="6" height="6"/></g>
<g transform="translate(616,176) scale(3.7766666666667)"><rect width="6" height="6"/></g>
<g transform="translate(660,176) scale(3.7766666666667)"><rect width="6" height="6"/></g>
<g transform="translate(704,176) scale(3.7766666666667)"><rect width="6" height="6"/></g>
<g transform="translate(748,176) scale(3.7766666666667)"><rect width="6" height="6"/></g>
<g transform="translate(220,198) scale(3.7766666666667)"><rect width="6" height="6"/></g>
<g transform="translate(286,198) scale(3.7766666666667)"><rect width="6" height="6"/></g>
<g transform="translate(308,198) scale(3.7766666666667)"><rect width="6" height="6"/></g>
<g transform="translate(330,198) scale(3.7766666666667)"><rect width="6" height="6"/></g>
<g transform="translate(396,198) scale(3.7766666666667)"><rect width="6" height="6"/></g>
<g transform="translate(418,198) scale(3.7766666666667)"><rect width="6" height="6"/></g>
<g transform="translate(440,198) scale(3.7766666666667)"><rect width="6" height="6"/></g>
<g transform="translate(462,198) scale(3.7766666666667)"><rect width="6" height="6"/></g>
<g transform="translate(660,198) scale(3.7766666666667)"><rect width="6" height="6"/></g>
<g transform="translate(704,198) scale(3.7766666666667)"><rect width="6" height="6"/></g>
<g transform="translate(88,220) scale(3.7766666666667)"><rect width="6" height="6"/></g>
<g transform="translate(110,220) scale(3.7766666666667)"><rect width="6" height="6"/></g>
<g transform="translate(132,220) scale(3.7766666666667)"><rect width="6" height="6"/></g>
<g transform="translate(176,220) scale(3.7766666666667)"><rect width="6" height="6"/></g>
<g transform="translate(220,220) scale(3.7766666666667)"><rect width="6" height="6"/></g>
<g transform="translate(242,220) scale(3.7766666666667)"><rect width="6" height="6"/></g>
<g transform="translate(264,220) scale(3.7766666666667)"><rect width="6" height="6"/></g>
<g transform="translate(286,220) scale(3.7766666666667)"><rect width="6" height="6"/></g>
<g transform="translate(330,220) scale(3.7766666666667)"><rect width="6" height="6"/></g>
<g transform="translate(374,220) scale(3.7766666666667)"><rect width="6" height="6"/></g>
<g transform="translate(396,220) scale(3.7766666666667)"><rect width="6" height="6"/></g>
<g transform="translate(418,220) scale(3.7766666666667)"><rect width="6" height="6"/></g>
<g transform="translate(440,220) scale(3.7766666666667)"><rect width="6" height="6"/></g>
<g transform="translate(506,220) scale(3.7766666666667)"><rect width="6" height="6"/></g>
<g transform="translate(528,220) scale(3.7766666666667)"><rect width="6" height="6"/></g>
<g transform="translate(550,220) scale(3.7766666666667)"><rect width="6" height="6"/></g>
<g transform="translate(682,220) scale(3.7766666666667)"><rect width="6" height="6"/></g>
<g transform="translate(770,220) scale(3.7766666666667)"><rect width="6" height="6"/></g>
<g transform="translate(792,220) scale(3.7766666666667)"><rect width="6" height="6"/></g>
<g transform="translate(814,220) scale(3.7766666666667)"><rect width="6" height="6"/></g>
<g transform="translate(880,220) scale(3.7766666666667)"><rect width="6" height="6"/></g>
<g transform="translate(902,220) scale(3.7766666666667)"><rect width="6" height="6"/></g>
<g transform="translate(924,220) scale(3.7766666666667)"><rect width="6" height="6"/></g>
<g transform="translate(44,242) scale(3.7766666666667)"><rect width="6" height="6"/></g>
<g transform="translate(66,242) scale(3.7766666666667)"><rect width="6" height="6"/></g>
<g transform="translate(88,242) scale(3.7766666666667)"><rect width="6" height="6"/></g>
<g transform="translate(154,242) scale(3.7766666666667)"><rect width="6" height="6"/></g>
<g transform="translate(198,242) scale(3.7766666666667)"><rect width="6" height="6"/></g>
<g transform="translate(242,242) scale(3.7766666666667)"><rect width="6" height="6"/></g>
<g transform="translate(286,242) scale(3.7766666666667)"><rect width="6" height="6"/></g>
<g transform="translate(330,242) scale(3.7766666666667)"><rect width="6" height="6"/></g>
<g transform="translate(374,242) scale(3.7766666666667)"><rect width="6" height="6"/></g>
<g transform="translate(418,242) scale(3.7766666666667)"><rect width="6" height="6"/></g>
<g transform="translate(506,242) scale(3.7766666666667)"><rect width="6" height="6"/></g>
<g transform="translate(616,242) scale(3.7766666666667)"><rect width="6" height="6"/></g>
<g transform="translate(660,242) scale(3.7766666666667)"><rect width="6" height="6"/></g>
<g transform="translate(704,242) scale(3.7766666666667)"><rect width="6" height="6"/></g>
<g transform="translate(726,242) scale(3.7766666666667)"><rect width="6" height="6"/></g>
<g transform="translate(748,242) scale(3.7766666666667)"><rect width="6" height="6"/></g>
<g transform="translate(770,242) scale(3.7766666666667)"><rect width="6" height="6"/></g>
<g transform="translate(792,242) scale(3.7766666666667)"><rect width="6" height="6"/></g>
<g transform="translate(836,242) scale(3.7766666666667)"><rect width="6" height="6"/></g>
<g transform="translate(880,242) scale(3.7766666666667)"><rect width="6" height="6"/></g>
<g transform="translate(924,242) scale(3.7766666666667)"><rect width="6" height="6"/></g>
<g transform="translate(88,264) scale(3.7766666666667)"><rect width="6" height="6"/></g>
<g transform="translate(110,264) scale(3.7766666666667)"><rect width="6" height="6"/></g>
<g transform="translate(154,264) scale(3.7766666666667)"><rect width="6" height="6"/></g>
<g transform="translate(176,264) scale(3.7766666666667)"><rect width="6" height="6"/></g>
<g transform="translate(198,264) scale(3.7766666666667)"><rect width="6" height="6"/></g>
<g transform="translate(220,264) scale(3.7766666666667)"><rect width="6" height="6"/></g>
<g transform="translate(242,264) scale(3.7766666666667)"><rect width="6" height="6"/></g>
<g transform="translate(264,264) scale(3.7766666666667)"><rect width="6" height="6"/></g>
<g transform="translate(286,264) scale(3.7766666666667)"><rect width="6" height="6"/></g>
<g transform="translate(330,264) scale(3.7766666666667)"><rect width="6" height="6"/></g>
<g transform="translate(396,264) scale(3.7766666666667)"><rect width="6" height="6"/></g>
<g transform="translate(484,264) scale(3.7766666666667)"><rect width="6" height="6"/></g>
<g transform="translate(506,264) scale(3.7766666666667)"><rect width="6" height="6"/></g>
<g transform="translate(638,264) scale(3.7766666666667)"><rect width="6" height="6"/></g>
<g transform="translate(660,264) scale(3.7766666666667)"><rect width="6" height="6"/></g>
<g transform="translate(682,264) scale(3.7766666666667)"><rect width="6" height="6"/></g>
<g transform="translate(704,264) scale(3.7766666666667)"><rect width="6" height="6"/></g>
<g transform="translate(748,264) scale(3.7766666666667)"><rect width="6" height="6"/></g>
<g transform="translate(66,286) scale(3.7766666666667)"><rect width="6" height="6"/></g>
<g transform="translate(88,286) scale(3.7766666666667)"><rect width="6" height="6"/></g>
<g transform="translate(132,286) scale(3.7766666666667)"><rect width="6" height="6"/></g>
<g transform="translate(198,286) scale(3.7766666666667)"><rect width="6" height="6"/></g>
<g transform="translate(220,286) scale(3.7766666666667)"><rect width="6" height="6"/></g>
<g transform="translate(242,286) scale(3.7766666666667)"><rect width="6" height="6"/></g>
<g transform="translate(264,286) scale(3.7766666666667)"><rect width="6" height="6"/></g>
<g transform="translate(286,286) scale(3.7766666666667)"><rect width="6" height="6"/></g>
<g transform="translate(330,286) scale(3.7766666666667)"><rect width="6" height="6"/></g>
<g transform="translate(352,286) scale(3.7766666666667)"><rect width="6" height="6"/></g>
<g transform="translate(374,286) scale(3.7766666666667)"><rect width="6" height="6"/></g>
<g transform="translate(440,286) scale(3.7766666666667)"><rect width="6" height="6"/></g>
<g transform="translate(462,286) scale(3.7766666666667)"><rect width="6" height="6"/></g>
<g transform="translate(506,286) scale(3.7766666666667)"><rect width="6" height="6"/></g>
<g transform="translate(550,286) scale(3.7766666666667)"><rect width="6" height="6"/></g>
<g transform="translate(616,286) scale(3.7766666666667)"><rect width="6" height="6"/></g>
<g transform="translate(638,286) scale(3.7766666666667)"><rect width="6" height="6"/></g>
<g transform="translate(660,286) scale(3.7766666666667)"><rect width="6" height="6"/></g>
<g transform="translate(704,286) scale(3.7766666666667)"><rect width="6" height="6"/></g>
<g transform="translate(726,286) scale(3.7766666666667)"><rect width="6" height="6"/></g>
<g transform="translate(748,286) scale(3.7766666666667)"><rect width="6" height="6"/></g>
<g transform="translate(770,286) scale(3.7766666666667)"><rect width="6" height="6"/></g>
<g transform="translate(814,286) scale(3.7766666666667)"><rect width="6" height="6"/></g>
<g transform="translate(858,286) scale(3.7766666666667)"><rect width="6" height="6"/></g>
<g transform="translate(66,308) scale(3.7766666666667)"><rect width="6" height="6"/></g>
<g transform="translate(176,308) scale(3.7766666666667)"><rect width="6" height="6"/></g>
<g transform="translate(220,308) scale(3.7766666666667)"><rect width="6" height="6"/></g>
<g transform="translate(286,308) scale(3.7766666666667)"><rect width="6" height="6"/></g>
<g transform="translate(308,308) scale(3.7766666666667)"><rect width="6" height="6"/></g>
<g transform="translate(374,308) scale(3.7766666666667)"><rect width="6" height="6"/></g>
<g transform="translate(484,308) scale(3.7766666666667)"><rect width="6" height="6"/></g>
<g transform="translate(572,308) scale(3.7766666666667)"><rect width="6" height="6"/></g>
<g transform="translate(594,308) scale(3.7766666666667)"><rect width="6" height="6"/></g>
<g transform="translate(616,308) scale(3.7766666666667)"><rect width="6" height="6"/></g>
<g transform="translate(638,308) scale(3.7766666666667)"><rect width="6" height="6"/></g>
<g transform="translate(660,308) scale(3.7766666666667)"><rect width="6" height="6"/></g>
<g transform="translate(682,308) scale(3.7766666666667)"><rect width="6" height="6"/></g>
<g transform="translate(726,308) scale(3.7766666666667)"><rect width="6" height="6"/></g>
<g transform="translate(748,308) scale(3.7766666666667)"><rect width="6" height="6"/></g>
<g transform="translate(858,308) scale(3.7766666666667)"><rect width="6" height="6"/></g>
<g transform="translate(880,308) scale(3.7766666666667)"><rect width="6" height="6"/></g>
<g transform="translate(132,330) scale(3.7766666666667)"><rect width="6" height="6"/></g>
<g transform="translate(154,330) scale(3.7766666666667)"><rect width="6" height="6"/></g>
<g transform="translate(220,330) scale(3.7766666666667)"><rect width="6" height="6"/></g>
<g transform="translate(264,330) scale(3.7766666666667)"><rect width="6" height="6"/></g>
<g transform="translate(352,330) scale(3.7766666666667)"><rect width="6" height="6"/></g>
<g transform="translate(506,330) scale(3.7766666666667)"><rect width="6" height="6"/></g>
<g transform="translate(528,330) scale(3.7766666666667)"><rect width="6" height="6"/></g>
<g transform="translate(550,330) scale(3.7766666666667)"><rect width="6" height="6"/></g>
<g transform="translate(594,330) scale(3.7766666666667)"><rect width="6" height="6"/></g>
<g transform="translate(616,330) scale(3.7766666666667)"><rect width="6" height="6"/></g>
<g transform="translate(638,330) scale(3.7766666666667)"><rect width="6" height="6"/></g>
<g transform="translate(704,330) scale(3.7766666666667)"><rect width="6" height="6"/></g>
<g transform="translate(726,330) scale(3.7766666666667)"><rect width="6" height="6"/></g>
<g transform="translate(770,330) scale(3.7766666666667)"><rect width="6" height="6"/></g>
<g transform="translate(792,330) scale(3.7766666666667)"><rect width="6" height="6"/></g>
<g transform="translate(814,330) scale(3.7766666666667)"><rect width="6" height="6"/></g>
<g transform="translate(836,330) scale(3.7766666666667)"><rect width="6" height="6"/></g>
<g transform="translate(880,330) scale(3.7766666666667)"><rect width="6" height="6"/></g>
<g transform="translate(924,330) scale(3.7766666666667)"><rect width="6" height="6"/></g>
<g transform="translate(44,352) scale(3.7766666666667)"><rect width="6" height="6"/></g>
<g transform="translate(176,352) scale(3.7766666666667)"><rect width="6" height="6"/></g>
<g transform="translate(198,352) scale(3.7766666666667)"><rect width="6" height="6"/></g>
<g transform="translate(264,352) scale(3.7766666666667)"><rect width="6" height="6"/></g>
<g transform="translate(308,352) scale(3.7766666666667)"><rect width="6" height="6"/></g>
<g transform="translate(396,352) scale(3.7766666666667)"><rect width="6" height="6"/></g>
<g transform="translate(418,352) scale(3.7766666666667)"><rect width="6" height="6"/></g>
<g transform="translate(506,352) scale(3.7766666666667)"><rect width="6" height="6"/></g>
<g transform="translate(572,352) scale(3.7766666666667)"><rect width="6" height="6"/></g>
<g transform="translate(638,352) scale(3.7766666666667)"><rect width="6" height="6"/></g>
<g transform="translate(660,352) scale(3.7766666666667)"><rect width="6" height="6"/></g>
<g transform="translate(704,352) scale(3.7766666666667)"><rect width="6" height="6"/></g>
<g transform="translate(748,352) scale(3.7766666666667)"><rect width="6" height="6"/></g>
<g transform="translate(770,352) scale(3.7766666666667)"><rect width="6" height="6"/></g>
<g transform="translate(858,352) scale(3.7766666666667)"><rect width="6" height="6"/></g>
<g transform="translate(880,352) scale(3.7766666666667)"><rect width="6" height="6"/></g>
<g transform="translate(110,374) scale(3.7766666666667)"><rect width="6" height="6"/></g>
<g transform="translate(132,374) scale(3.7766666666667)"><rect width="6" height="6"/></g>
<g transform="translate(154,374) scale(3.7766666666667)"><rect width="6" height="6"/></g>
<g transform="translate(198,374) scale(3.7766666666667)"><rect width="6" height="6"/></g>
<g transform="translate(220,374) scale(3.7766666666667)"><rect width="6" height="6"/></g>
<g transform="translate(286,374) scale(3.7766666666667)"><rect width="6" height="6"/></g>
<g transform="translate(308,374) scale(3.7766666666667)"><rect width="6" height="6"/></g>
<g transform="translate(330,374) scale(3.7766666666667)"><rect width="6" height="6"/></g>
<g transform="translate(352,374) scale(3.7766666666667)"><rect width="6" height="6"/></g>
<g transform="translate(374,374) scale(3.7766666666667)"><rect width="6" height="6"/></g>
<g transform="translate(462,374) scale(3.7766666666667)"><rect width="6" height="6"/></g>
<g transform="translate(506,374) scale(3.7766666666667)"><rect width="6" height="6"/></g>
<g transform="translate(572,374) scale(3.7766666666667)"><rect width="6" height="6"/></g>
<g transform="translate(594,374) scale(3.7766666666667)"><rect width="6" height="6"/></g>
<g transform="translate(616,374) scale(3.7766666666667)"><rect width="6" height="6"/></g>
<g transform="translate(638,374) scale(3.7766666666667)"><rect width="6" height="6"/></g>
<g transform="translate(704,374) scale(3.7766666666667)"><rect width="6" height="6"/></g>
<g transform="translate(726,374) scale(3.7766666666667)"><rect width="6" height="6"/></g>
<g transform="translate(792,374) scale(3.7766666666667)"><rect width="6" height="6"/></g>
<g transform="translate(814,374) scale(3.7766666666667)"><rect width="6" height="6"/></g>
<g transform="translate(858,374) scale(3.7766666666667)"><rect width="6" height="6"/></g>
<g transform="translate(88,396) scale(3.7766666666667)"><rect width="6" height="6"/></g>
<g transform="translate(132,396) scale(3.7766666666667)"><rect width="6" height="6"/></g>
<g transform="translate(176,396) scale(3.7766666666667)"><rect width="6" height="6"/></g>
<g transform="translate(198,396) scale(3.7766666666667)"><rect width="6" height="6"/></g>
<g transform="translate(242,396) scale(3.7766666666667)"><rect width="6" height="6"/></g>
<g transform="translate(264,396) scale(3.7766666666667)"><rect width="6" height="6"/></g>
<g transform="translate(308,396) scale(3.7766666666667)"><rect width="6" height="6"/></g>
<g transform="translate(352,396) scale(3.7766666666667)"><rect width="6" height="6"/></g>
<g transform="translate(440,396) scale(3.7766666666667)"><rect width="6" height="6"/></g>
<g transform="translate(462,396) scale(3.7766666666667)"><rect width="6" height="6"/></g>
<g transform="translate(506,396) scale(3.7766666666667)"><rect width="6" height="6"/></g>
<g transform="translate(528,396) scale(3.7766666666667)"><rect width="6" height="6"/></g>
<g transform="translate(572,396) scale(3.7766666666667)"><rect width="6" height="6"/></g>
<g transform="translate(638,396) scale(3.7766666666667)"><rect width="6" height="6"/></g>
<g transform="translate(682,396) scale(3.7766666666667)"><rect width="6" height="6"/></g>
<g transform="translate(704,396) scale(3.7766666666667)"><rect width="6" height="6"/></g>
<g transform="translate(770,396) scale(3.7766666666667)"><rect width="6" height="6"/></g>
<g transform="translate(814,396) scale(3.7766666666667)"><rect width="6" height="6"/></g>
<g transform="translate(880,396) scale(3.7766666666667)"><rect width="6" height="6"/></g>
<g transform="translate(902,396) scale(3.7766666666667)"><rect width="6" height="6"/></g>
<g transform="translate(66,418) scale(3.7766666666667)"><rect width="6" height="6"/></g>
<g transform="translate(110,418) scale(3.7766666666667)"><rect width="6" height="6"/></g>
<g transform="translate(132,418) scale(3.7766666666667)"><rect width="6" height="6"/></g>
<g transform="translate(154,418) scale(3.7766666666667)"><rect width="6" height="6"/></g>
<g transform="translate(220,418) scale(3.7766666666667)"><rect width="6" height="6"/></g>
<g transform="translate(330,418) scale(3.7766666666667)"><rect width="6" height="6"/></g>
<g transform="translate(484,418) scale(3.7766666666667)"><rect width="6" height="6"/></g>
<g transform="translate(572,418) scale(3.7766666666667)"><rect width="6" height="6"/></g>
<g transform="translate(594,418) scale(3.7766666666667)"><rect width="6" height="6"/></g>
<g transform="translate(616,418) scale(3.7766666666667)"><rect width="6" height="6"/></g>
<g transform="translate(660,418) scale(3.7766666666667)"><rect width="6" height="6"/></g>
<g transform="translate(682,418) scale(3.7766666666667)"><rect width="6" height="6"/></g>
<g transform="translate(726,418) scale(3.7766666666667)"><rect width="6" height="6"/></g>
<g transform="translate(748,418) scale(3.7766666666667)"><rect width="6" height="6"/></g>
<g transform="translate(792,418) scale(3.7766666666667)"><rect width="6" height="6"/></g>
<g transform="translate(814,418) scale(3.7766666666667)"><rect width="6" height="6"/></g>
<g transform="translate(836,418) scale(3.7766666666667)"><rect width="6" height="6"/></g>
<g transform="translate(858,418) scale(3.7766666666667)"><rect width="6" height="6"/></g>
<g transform="translate(902,418) scale(3.7766666666667)"><rect width="6" height="6"/></g>
<g transform="translate(924,418) scale(3.7766666666667)"><rect width="6" height="6"/></g>
<g transform="translate(66,440) scale(3.7766666666667)"><rect width="6" height="6"/></g>
<g transform="translate(110,440) scale(3.7766666666667)"><rect width="6" height="6"/></g>
<g transform="translate(176,440) scale(3.7766666666667)"><rect width="6" height="6"/></g>
<g transform="translate(220,440) scale(3.7766666666667)"><rect width="6" height="6"/></g>
<g transform="translate(242,440) scale(3.7766666666667)"><rect width="6" height="6"/></g>
<g transform="translate(264,440) scale(3.7766666666667)"><rect width="6" height="6"/></g>
<g transform="translate(286,440) scale(3.7766666666667)"><rect width="6" height="6"/></g>
<g transform="translate(308,440) scale(3.7766666666667)"><rect width="6" height="6"/></g>
<g transform="translate(352,440) scale(3.7766666666667)"><rect width="6" height="6"/></g>
<g transform="translate(374,440) scale(3.7766666666667)"><rect width="6" height="6"/></g>
<g transform="translate(396,440) scale(3.7766666666667)"><rect width="6" height="6"/></g>
<g transform="translate(418,440) scale(3.7766666666667)"><rect width="6" height="6"/></g>
<g transform="translate(484,440) scale(3.7766666666667)"><rect width="6" height="6"/></g>
<g transform="translate(616,440) scale(3.7766666666667)"><rect width="6" height="6"/></g>
<g transform="translate(638,440) scale(3.7766666666667)"><rect width="6" height="6"/></g>
<g transform="translate(660,440) scale(3.7766666666667)"><rect width="6" height="6"/></g>
<g transform="translate(682,440) scale(3.7766666666667)"><rect width="6" height="6"/></g>
<g transform="translate(748,440) scale(3.7766666666667)"><rect width="6" height="6"/></g>
<g transform="translate(770,440) scale(3.7766666666667)"><rect width="6" height="6"/></g>
<g transform="translate(792,440) scale(3.7766666666667)"><rect width="6" height="6"/></g>
<g transform="translate(836,440) scale(3.7766666666667)"><rect width="6" height="6"/></g>
<g transform="translate(88,462) scale(3.7766666666667)"><rect width="6" height="6"/></g>
<g transform="translate(110,462) scale(3.7766666666667)"><rect width="6" height="6"/></g>
<g transform="translate(132,462) scale(3.7766666666667)"><rect width="6" height="6"/></g>
<g transform="translate(154,462) scale(3.7766666666667)"><rect width="6" height="6"/></g>
<g transform="translate(220,462) scale(3.7766666666667)"><rect width="6" height="6"/></g>
<g transform="translate(352,462) scale(3.7766666666667)"><rect width="6" height="6"/></g>
<g transform="translate(396,462) scale(3.7766666666667)"><rect width="6" height="6"/></g>
<g transform="translate(506,462) scale(3.7766666666667)"><rect width="6" height="6"/></g>
<g transform="translate(528,462) scale(3.7766666666667)"><rect width="6" height="6"/></g>
<g transform="translate(550,462) scale(3.7766666666667)"><rect width="6" height="6"/></g>
<g transform="translate(572,462) scale(3.7766666666667)"><rect width="6" height="6"/></g>
<g transform="translate(616,462) scale(3.7766666666667)"><rect width="6" height="6"/></g>
<g transform="translate(638,462) scale(3.7766666666667)"><rect width="6" height="6"/></g>
<g transform="translate(682,462) scale(3.7766666666667)"><rect width="6" height="6"/></g>
<g transform="translate(704,462) scale(3.7766666666667)"><rect width="6" height="6"/></g>
<g transform="translate(748,462) scale(3.7766666666667)"><rect width="6" height="6"/></g>
<g transform="translate(792,462) scale(3.7766666666667)"><rect width="6" height="6"/></g>
<g transform="translate(836,462) scale(3.7766666666667)"><rect width="6" height="6"/></g>
<g transform="translate(858,462) scale(3.7766666666667)"><rect width="6" height="6"/></g>
<g transform="translate(902,462) scale(3.7766666666667)"><rect width="6" height="6"/></g>
<g transform="translate(924,462) scale(3.7766666666667)"><rect width="6" height="6"/></g>
<g transform="translate(66,484) scale(3.7766666666667)"><rect width="6" height="6"/></g>
<g transform="translate(110,484) scale(3.7766666666667)"><rect width="6" height="6"/></g>
<g transform="translate(176,484) scale(3.7766666666667)"><rect width="6" height="6"/></g>
<g transform="translate(198,484) scale(3.7766666666667)"><rect width="6" height="6"/></g>
<g transform="translate(220,484) scale(3.7766666666667)"><rect width="6" height="6"/></g>
<g transform="translate(264,484) scale(3.7766666666667)"><rect width="6" height="6"/></g>
<g transform="translate(286,484) scale(3.7766666666667)"><rect width="6" height="6"/></g>
<g transform="translate(308,484) scale(3.7766666666667)"><rect width="6" height="6"/></g>
<g transform="translate(330,484) scale(3.7766666666667)"><rect width="6" height="6"/></g>
<g transform="translate(352,484) scale(3.7766666666667)"><rect width="6" height="6"/></g>
<g transform="translate(396,484) scale(3.7766666666667)"><rect width="6" height="6"/></g>
<g transform="translate(418,484) scale(3.7766666666667)"><rect width="6" height="6"/></g>
<g transform="translate(462,484) scale(3.7766666666667)"><rect width="6" height="6"/></g>
<g transform="translate(506,484) scale(3.7766666666667)"><rect width="6" height="6"/></g>
<g transform="translate(528,484) scale(3.7766666666667)"><rect width="6" height="6"/></g>
<g transform="translate(550,484) scale(3.7766666666667)"><rect width="6" height="6"/></g>
<g transform="translate(572,484) scale(3.7766666666667)"><rect width="6" height="6"/></g>
<g transform="translate(594,484) scale(3.7766666666667)"><rect width="6" height="6"/></g>
<g transform="translate(726,484) scale(3.7766666666667)"><rect width="6" height="6"/></g>
<g transform="translate(748,484) scale(3.7766666666667)"><rect width="6" height="6"/></g>
<g transform="translate(814,484) scale(3.7766666666667)"><rect width="6" height="6"/></g>
<g transform="translate(880,484) scale(3.7766666666667)"><rect width="6" height="6"/></g>
<g transform="translate(924,484) scale(3.7766666666667)"><rect width="6" height="6"/></g>
<g transform="translate(88,506) scale(3.7766666666667)"><rect width="6" height="6"/></g>
<g transform="translate(132,506) scale(3.7766666666667)"><rect width="6" height="6"/></g>
<g transform="translate(154,506) scale(3.7766666666667)"><rect width="6" height="6"/></g>
<g transform="translate(242,506) scale(3.7766666666667)"><rect width="6" height="6"/></g>
<g transform="translate(286,506) scale(3.7766666666667)"><rect width="6" height="6"/></g>
<g transform="translate(330,506) scale(3.7766666666667)"><rect width="6" height="6"/></g>
<g transform="translate(352,506) scale(3.7766666666667)"><rect width="6" height="6"/></g>
<g transform="translate(396,506) scale(3.7766666666667)"><rect width="6" height="6"/></g>
<g transform="translate(440,506) scale(3.7766666666667)"><rect width="6" height="6"/></g>
<g transform="translate(484,506) scale(3.7766666666667)"><rect width="6" height="6"/></g>
<g transform="translate(528,506) scale(3.7766666666667)"><rect width="6" height="6"/></g>
<g transform="translate(550,506) scale(3.7766666666667)"><rect width="6" height="6"/></g>
<g transform="translate(572,506) scale(3.7766666666667)"><rect width="6" height="6"/></g>
<g transform="translate(594,506) scale(3.7766666666667)"><rect width="6" height="6"/></g>
<g transform="translate(660,506) scale(3.7766666666667)"><rect width="6" height="6"/></g>
<g transform="translate(704,506) scale(3.7766666666667)"><rect width="6" height="6"/></g>
<g transform="translate(726,506) scale(3.7766666666667)"><rect width="6" height="6"/></g>
<g transform="translate(748,506) scale(3.7766666666667)"><rect width="6" height="6"/></g>
<g transform="translate(792,506) scale(3.7766666666667)"><rect width="6" height="6"/></g>
<g transform="translate(814,506) scale(3.7766666666667)"><rect width="6" height="6"/></g>
<g transform="translate(836,506) scale(3.7766666666667)"><rect width="6" height="6"/></g>
<g transform="translate(880,506) scale(3.7766666666667)"><rect width="6" height="6"/></g>
<g transform="translate(902,506) scale(3.7766666666667)"><rect width="6" height="6"/></g>
<g transform="translate(924,506) scale(3.7766666666667)"><rect width="6" height="6"/></g>
<g transform="translate(44,528) scale(3.7766666666667)"><rect width="6" height="6"/></g>
<g transform="translate(66,528) scale(3.7766666666667)"><rect width="6" height="6"/></g>
<g transform="translate(110,528) scale(3.7766666666667)"><rect width="6" height="6"/></g>
<g transform="translate(154,528) scale(3.7766666666667)"><rect width="6" height="6"/></g>
<g transform="translate(176,528) scale(3.7766666666667)"><rect width="6" height="6"/></g>
<g transform="translate(286,528) scale(3.7766666666667)"><rect width="6" height="6"/></g>
<g transform="translate(308,528) scale(3.7766666666667)"><rect width="6" height="6"/></g>
<g transform="translate(330,528) scale(3.7766666666667)"><rect width="6" height="6"/></g>
<g transform="translate(418,528) scale(3.7766666666667)"><rect width="6" height="6"/></g>
<g transform="translate(440,528) scale(3.7766666666667)"><rect width="6" height="6"/></g>
<g transform="translate(484,528) scale(3.7766666666667)"><rect width="6" height="6"/></g>
<g transform="translate(506,528) scale(3.7766666666667)"><rect width="6" height="6"/></g>
<g transform="translate(528,528) scale(3.7766666666667)"><rect width="6" height="6"/></g>
<g transform="translate(638,528) scale(3.7766666666667)"><rect width="6" height="6"/></g>
<g transform="translate(660,528) scale(3.7766666666667)"><rect width="6" height="6"/></g>
<g transform="translate(704,528) scale(3.7766666666667)"><rect width="6" height="6"/></g>
<g transform="translate(748,528) scale(3.7766666666667)"><rect width="6" height="6"/></g>
<g transform="translate(792,528) scale(3.7766666666667)"><rect width="6" height="6"/></g>
<g transform="translate(836,528) scale(3.7766666666667)"><rect width="6" height="6"/></g>
<g transform="translate(44,550) scale(3.7766666666667)"><rect width="6" height="6"/></g>
<g transform="translate(88,550) scale(3.7766666666667)"><rect width="6" height="6"/></g>
<g transform="translate(132,550) scale(3.7766666666667)"><rect width="6" height="6"/></g>
<g transform="translate(198,550) scale(3.7766666666667)"><rect width="6" height="6"/></g>
<g transform="translate(286,550) scale(3.7766666666667)"><rect width="6" height="6"/></g>
<g transform="translate(330,550) scale(3.7766666666667)"><rect width="6" height="6"/></g>
<g transform="translate(396,550) scale(3.7766666666667)"><rect width="6" height="6"/></g>
<g transform="translate(418,550) scale(3.7766666666667)"><rect width="6" height="6"/></g>
<g transform="translate(462,550) scale(3.7766666666667)"><rect width="6" height="6"/></g>
<g transform="translate(484,550) scale(3.7766666666667)"><rect width="6" height="6"/></g>
<g transform="translate(506,550) scale(3.7766666666667)"><rect width="6" height="6"/></g>
<g transform="translate(528,550) scale(3.7766666666667)"><rect width="6" height="6"/></g>
<g transform="translate(594,550) scale(3.7766666666667)"><rect width="6" height="6"/></g>
<g transform="translate(638,550) scale(3.7766666666667)"><rect width="6" height="6"/></g>
<g transform="translate(660,550) scale(3.7766666666667)"><rect width="6" height="6"/></g>
<g transform="translate(726,550) scale(3.7766666666667)"><rect width="6" height="6"/></g>
<g transform="translate(748,550) scale(3.7766666666667)"><rect width="6" height="6"/></g>
<g transform="translate(792,550) scale(3.7766666666667)"><rect width="6" height="6"/></g>
<g transform="translate(44,572) scale(3.7766666666667)"><rect width="6" height="6"/></g>
<g transform="translate(66,572) scale(3.7766666666667)"><rect width="6" height="6"/></g>
<g transform="translate(88,572) scale(3.7766666666667)"><rect width="6" height="6"/></g>
<g transform="translate(176,572) scale(3.7766666666667)"><rect width="6" height="6"/></g>
<g transform="translate(198,572) scale(3.7766666666667)"><rect width="6" height="6"/></g>
<g transform="translate(242,572) scale(3.7766666666667)"><rect width="6" height="6"/></g>
<g transform="translate(308,572) scale(3.7766666666667)"><rect width="6" height="6"/></g>
<g transform="translate(330,572) scale(3.7766666666667)"><rect width="6" height="6"/></g>
<g transform="translate(352,572) scale(3.7766666666667)"><rect width="6" height="6"/></g>
<g transform="translate(374,572) scale(3.7766666666667)"><rect width="6" height="6"/></g>
<g transform="translate(396,572) scale(3.7766666666667)"><rect width="6" height="6"/></g>
<g transform="translate(484,572) scale(3.7766666666667)"><rect width="6" height="6"/></g>
<g transform="translate(506,572) scale(3.7766666666667)"><rect width="6" height="6"/></g>
<g transform="translate(528,572) scale(3.7766666666667)"><rect width="6" height="6"/></g>
<g transform="translate(616,572) scale(3.7766666666667)"><rect width="6" height="6"/></g>
<g transform="translate(638,572) scale(3.7766666666667)"><rect width="6" height="6"/></g>
<g transform="translate(682,572) scale(3.7766666666667)"><rect width="6" height="6"/></g>
<g transform="translate(726,572) scale(3.7766666666667)"><rect width="6" height="6"/></g>
<g transform="translate(880,572) scale(3.7766666666667)"><rect width="6" height="6"/></g>
<g transform="translate(88,594) scale(3.7766666666667)"><rect width="6" height="6"/></g>
<g transform="translate(110,594) scale(3.7766666666667)"><rect width="6" height="6"/></g>
<g transform="translate(132,594) scale(3.7766666666667)"><rect width="6" height="6"/></g>
<g transform="translate(154,594) scale(3.7766666666667)"><rect width="6" height="6"/></g>
<g transform="translate(242,594) scale(3.7766666666667)"><rect width="6" height="6"/></g>
<g transform="translate(308,594) scale(3.7766666666667)"><rect width="6" height="6"/></g>
<g transform="translate(352,594) scale(3.7766666666667)"><rect width="6" height="6"/></g>
<g transform="translate(374,594) scale(3.7766666666667)"><rect width="6" height="6"/></g>
<g transform="translate(418,594) scale(3.7766666666667)"><rect width="6" height="6"/></g>
<g transform="translate(440,594) scale(3.7766666666667)"><rect width="6" height="6"/></g>
<g transform="translate(484,594) scale(3.7766666666667)"><rect width="6" height="6"/></g>
<g transform="translate(550,594) scale(3.7766666666667)"><rect width="6" height="6"/></g>
<g transform="translate(572,594) scale(3.7766666666667)"><rect width="6" height="6"/></g>
<g transform="translate(594,594) scale(3.7766666666667)"><rect width="6" height="6"/></g>
<g transform="translate(616,594) scale(3.7766666666667)"><rect width="6" height="6"/></g>
<g transform="translate(660,594) scale(3.7766666666667)"><rect width="6" height="6"/></g>
<g transform="translate(704,594) scale(3.7766666666667)"><rect width="6" height="6"/></g>
<g transform="translate(726,594) scale(3.7766666666667)"><rect width="6" height="6"/></g>
<g transform="translate(770,594) scale(3.7766666666667)"><rect width="6" height="6"/></g>
<g transform="translate(792,594) scale(3.7766666666667)"><rect width="6" height="6"/></g>
<g transform="translate(814,594) scale(3.7766666666667)"><rect width="6" height="6"/></g>
<g transform="translate(836,594) scale(3.7766666666667)"><rect width="6" height="6"/></g>
<g transform="translate(858,594) scale(3.7766666666667)"><rect width="6" height="6"/></g>
<g transform="translate(902,594) scale(3.7766666666667)"><rect width="6" height="6"/></g>
<g transform="translate(924,594) scale(3.7766666666667)"><rect width="6" height="6"/></g>
<g transform="translate(66,616) scale(3.7766666666667)"><rect width="6" height="6"/></g>
<g transform="translate(176,616) scale(3.7766666666667)"><rect width="6" height="6"/></g>
<g transform="translate(220,616) scale(3.7766666666667)"><rect width="6" height="6"/></g>
<g transform="translate(242,616) scale(3.7766666666667)"><rect width="6" height="6"/></g>
<g transform="translate(286,616) scale(3.7766666666667)"><rect width="6" height="6"/></g>
<g transform="translate(308,616) scale(3.7766666666667)"><rect width="6" height="6"/></g>
<g transform="translate(506,616) scale(3.7766666666667)"><rect width="6" height="6"/></g>
<g transform="translate(550,616) scale(3.7766666666667)"><rect width="6" height="6"/></g>
<g transform="translate(572,616) scale(3.7766666666667)"><rect width="6" height="6"/></g>
<g transform="translate(638,616) scale(3.7766666666667)"><rect width="6" height="6"/></g>
<g transform="translate(660,616) scale(3.7766666666667)"><rect width="6" height="6"/></g>
<g transform="translate(748,616) scale(3.7766666666667)"><rect width="6" height="6"/></g>
<g transform="translate(792,616) scale(3.7766666666667)"><rect width="6" height="6"/></g>
<g transform="translate(814,616) scale(3.7766666666667)"><rect width="6" height="6"/></g>
<g transform="translate(66,638) scale(3.7766666666667)"><rect width="6" height="6"/></g>
<g transform="translate(88,638) scale(3.7766666666667)"><rect width="6" height="6"/></g>
<g transform="translate(154,638) scale(3.7766666666667)"><rect width="6" height="6"/></g>
<g transform="translate(198,638) scale(3.7766666666667)"><rect width="6" height="6"/></g>
<g transform="translate(286,638) scale(3.7766666666667)"><rect width="6" height="6"/></g>
<g transform="translate(352,638) scale(3.7766666666667)"><rect width="6" height="6"/></g>
<g transform="translate(396,638) scale(3.7766666666667)"><rect width="6" height="6"/></g>
<g transform="translate(418,638) scale(3.7766666666667)"><rect width="6" height="6"/></g>
<g transform="translate(440,638) scale(3.7766666666667)"><rect width="6" height="6"/></g>
<g transform="translate(484,638) scale(3.7766666666667)"><rect width="6" height="6"/></g>
<g transform="translate(572,638) scale(3.7766666666667)"><rect width="6" height="6"/></g>
<g transform="translate(616,638) scale(3.7766666666667)"><rect width="6" height="6"/></g>
<g transform="translate(638,638) scale(3.7766666666667)"><rect width="6" height="6"/></g>
<g transform="translate(726,638) scale(3.7766666666667)"><rect width="6" height="6"/></g>
<g transform="translate(748,638) scale(3.7766666666667)"><rect width="6" height="6"/></g>
<g transform="translate(814,638) scale(3.7766666666667)"><rect width="6" height="6"/></g>
<g transform="translate(858,638) scale(3.7766666666667)"><rect width="6" height="6"/></g>
<g transform="translate(902,638) scale(3.7766666666667)"><rect width="6" height="6"/></g>
<g transform="translate(44,660) scale(3.7766666666667)"><rect width="6" height="6"/></g>
<g transform="translate(66,660) scale(3.7766666666667)"><rect width="6" height="6"/></g>
<g transform="translate(110,660) scale(3.7766666666667)"><rect width="6" height="6"/></g>
<g transform="translate(176,660) scale(3.7766666666667)"><rect width="6" height="6"/></g>
<g transform="translate(220,660) scale(3.7766666666667)"><rect width="6" height="6"/></g>
<g transform="translate(286,660) scale(3.7766666666667)"><rect width="6" height="6"/></g>
<g transform="translate(330,660) scale(3.7766666666667)"><rect width="6" height="6"/></g>
<g transform="translate(440,660) scale(3.7766666666667)"><rect width="6" height="6"/></g>
<g transform="translate(462,660) scale(3.7766666666667)"><rect width="6" height="6"/></g>
<g transform="translate(506,660) scale(3.7766666666667)"><rect width="6" height="6"/></g>
<g transform="translate(594,660) scale(3.7766666666667)"><rect width="6" height="6"/></g>
<g transform="translate(682,660) scale(3.7766666666667)"><rect width="6" height="6"/></g>
<g transform="translate(726,660) scale(3.7766666666667)"><rect width="6" height="6"/></g>
<g transform="translate(858,660) scale(3.7766666666667)"><rect width="6" height="6"/></g>
<g transform="translate(880,660) scale(3.7766666666667)"><rect width="6" height="6"/></g>
<g transform="translate(44,682) scale(3.7766666666667)"><rect width="6" height="6"/></g>
<g transform="translate(110,682) scale(3.7766666666667)"><rect width="6" height="6"/></g>
<g transform="translate(132,682) scale(3.7766666666667)"><rect width="6" height="6"/></g>
<g transform="translate(154,682) scale(3.7766666666667)"><rect width="6" height="6"/></g>
<g transform="translate(198,682) scale(3.7766666666667)"><rect width="6" height="6"/></g>
<g transform="translate(396,682) scale(3.7766666666667)"><rect width="6" height="6"/></g>
<g transform="translate(440,682) scale(3.7766666666667)"><rect width="6" height="6"/></g>
<g transform="translate(462,682) scale(3.7766666666667)"><rect width="6" height="6"/></g>
<g transform="translate(528,682) scale(3.7766666666667)"><rect width="6" height="6"/></g>
<g transform="translate(550,682) scale(3.7766666666667)"><rect width="6" height="6"/></g>
<g transform="translate(572,682) scale(3.7766666666667)"><rect width="6" height="6"/></g>
<g transform="translate(616,682) scale(3.7766666666667)"><rect width="6" height="6"/></g>
<g transform="translate(638,682) scale(3.7766666666667)"><rect width="6" height="6"/></g>
<g transform="translate(660,682) scale(3.7766666666667)"><rect width="6" height="6"/></g>
<g transform="translate(726,682) scale(3.7766666666667)"><rect width="6" height="6"/></g>
<g transform="translate(770,682) scale(3.7766666666667)"><rect width="6" height="6"/></g>
<g transform="translate(792,682) scale(3.7766666666667)"><rect width="6" height="6"/></g>
<g transform="translate(836,682) scale(3.7766666666667)"><rect width="6" height="6"/></g>
<g transform="translate(880,682) scale(3.7766666666667)"><rect width="6" height="6"/></g>
<g transform="translate(902,682) scale(3.7766666666667)"><rect width="6" height="6"/></g>
<g transform="translate(924,682) scale(3.7766666666667)"><rect width="6" height="6"/></g>
<g transform="translate(44,704) scale(3.7766666666667)"><rect width="6" height="6"/></g>
<g transform="translate(88,704) scale(3.7766666666667)"><rect width="6" height="6"/></g>
<g transform="translate(132,704) scale(3.7766666666667)"><rect width="6" height="6"/></g>
<g transform="translate(176,704) scale(3.7766666666667)"><rect width="6" height="6"/></g>
<g transform="translate(198,704) scale(3.7766666666667)"><rect width="6" height="6"/></g>
<g transform="translate(242,704) scale(3.7766666666667)"><rect width="6" height="6"/></g>
<g transform="translate(264,704) scale(3.7766666666667)"><rect width="6" height="6"/></g>
<g transform="translate(286,704) scale(3.7766666666667)"><rect width="6" height="6"/></g>
<g transform="translate(308,704) scale(3.7766666666667)"><rect width="6" height="6"/></g>
<g transform="translate(396,704) scale(3.7766666666667)"><rect width="6" height="6"/></g>
<g transform="translate(418,704) scale(3.7766666666667)"><rect width="6" height="6"/></g>
<g transform="translate(462,704) scale(3.7766666666667)"><rect width="6" height="6"/></g>
<g transform="translate(528,704) scale(3.7766666666667)"><rect width="6" height="6"/></g>
<g transform="translate(550,704) scale(3.7766666666667)"><rect width="6" height="6"/></g>
<g transform="translate(594,704) scale(3.7766666666667)"><rect width="6" height="6"/></g>
<g transform="translate(616,704) scale(3.7766666666667)"><rect width="6" height="6"/></g>
<g transform="translate(682,704) scale(3.7766666666667)"><rect width="6" height="6"/></g>
<g transform="translate(704,704) scale(3.7766666666667)"><rect width="6" height="6"/></g>
<g transform="translate(770,704) scale(3.7766666666667)"><rect width="6" height="6"/></g>
<g transform="translate(792,704) scale(3.7766666666667)"><rect width="6" height="6"/></g>
<g transform="translate(814,704) scale(3.7766666666667)"><rect width="6" height="6"/></g>
<g transform="translate(836,704) scale(3.7766666666667)"><rect width="6" height="6"/></g>
<g transform="translate(858,704) scale(3.7766666666667)"><rect width="6" height="6"/></g>
<g transform="translate(44,726) scale(3.7766666666667)"><rect width="6" height="6"/></g>
<g transform="translate(132,726) scale(3.7766666666667)"><rect width="6" height="6"/></g>
<g transform="translate(198,726) scale(3.7766666666667)"><rect width="6" height="6"/></g>
<g transform="translate(220,726) scale(3.7766666666667)"><rect width="6" height="6"/></g>
<g transform="translate(264,726) scale(3.7766666666667)"><rect width="6" height="6"/></g>
<g transform="translate(352,726) scale(3.7766666666667)"><rect width="6" height="6"/></g>
<g transform="translate(418,726) scale(3.7766666666667)"><rect width="6" height="6"/></g>
<g transform="translate(440,726) scale(3.7766666666667)"><rect width="6" height="6"/></g>
<g transform="translate(528,726) scale(3.7766666666667)"><rect width="6" height="6"/></g>
<g transform="translate(594,726) scale(3.7766666666667)"><rect width="6" height="6"/></g>
<g transform="translate(660,726) scale(3.7766666666667)"><rect width="6" height="6"/></g>
<g transform="translate(704,726) scale(3.7766666666667)"><rect width="6" height="6"/></g>
<g transform="translate(748,726) scale(3.7766666666667)"><rect width="6" height="6"/></g>
<g transform="translate(770,726) scale(3.7766666666667)"><rect width="6" height="6"/></g>
<g transform="translate(792,726) scale(3.7766666666667)"><rect width="6" height="6"/></g>
<g transform="translate(814,726) scale(3.7766666666667)"><rect width="6" height="6"/></g>
<g transform="translate(858,726) scale(3.7766666666667)"><rect width="6" height="6"/></g>
<g transform="translate(902,726) scale(3.7766666666667)"><rect width="6" height="6"/></g>
<g transform="translate(44,748) scale(3.7766666666667)"><rect width="6" height="6"/></g>
<g transform="translate(110,748) scale(3.7766666666667)"><rect width="6" height="6"/></g>
<g transform="translate(154,748) scale(3.7766666666667)"><rect width="6" height="6"/></g>
<g transform="translate(176,748) scale(3.7766666666667)"><rect width="6" height="6"/></g>
<g transform="translate(198,748) scale(3.7766666666667)"><rect width="6" height="6"/></g>
<g transform="translate(308,748) scale(3.7766666666667)"><rect width="6" height="6"/></g>
<g transform="translate(352,748) scale(3.7766666666667)"><rect width="6" height="6"/></g>
<g transform="translate(506,748) scale(3.7766666666667)"><rect width="6" height="6"/></g>
<g transform="translate(528,748) scale(3.7766666666667)"><rect width="6" height="6"/></g>
<g transform="translate(594,748) scale(3.7766666666667)"><rect width="6" height="6"/></g>
<g transform="translate(616,748) scale(3.7766666666667)"><rect width="6" height="6"/></g>
<g transform="translate(682,748) scale(3.7766666666667)"><rect width="6" height="6"/></g>
<g transform="translate(704,748) scale(3.7766666666667)"><rect width="6" height="6"/></g>
<g transform="translate(726,748) scale(3.7766666666667)"><rect width="6" height="6"/></g>
<g transform="translate(748,748) scale(3.7766666666667)"><rect width="6" height="6"/></g>
<g transform="translate(770,748) scale(3.7766666666667)"><rect width="6" height="6"/></g>
<g transform="translate(792,748) scale(3.7766666666667)"><rect width="6" height="6"/></g>
<g transform="translate(814,748) scale(3.7766666666667)"><rect width="6" height="6"/></g>
<g transform="translate(836,748) scale(3.7766666666667)"><rect width="6" height="6"/></g>
<g transform="translate(880,748) scale(3.7766666666667)"><rect width="6" height="6"/></g>
<g transform="translate(220,770) scale(3.7766666666667)"><rect width="6" height="6"/></g>
<g transform="translate(330,770) scale(3.7766666666667)"><rect width="6" height="6"/></g>
<g transform="translate(374,770) scale(3.7766666666667)"><rect width="6" height="6"/></g>
<g transform="translate(396,770) scale(3.7766666666667)"><rect width="6" height="6"/></g>
<g transform="translate(550,770) scale(3.7766666666667)"><rect width="6" height="6"/></g>
<g transform="translate(572,770) scale(3.7766666666667)"><rect width="6" height="6"/></g>
<g transform="translate(594,770) scale(3.7766666666667)"><rect width="6" height="6"/></g>
<g transform="translate(660,770) scale(3.7766666666667)"><rect width="6" height="6"/></g>
<g transform="translate(704,770) scale(3.7766666666667)"><rect width="6" height="6"/></g>
<g transform="translate(748,770) scale(3.7766666666667)"><rect width="6" height="6"/></g>
<g transform="translate(836,770) scale(3.7766666666667)"><rect width="6" height="6"/></g>
<g transform="translate(880,770) scale(3.7766666666667)"><rect width="6" height="6"/></g>
<g transform="translate(902,770) scale(3.7766666666667)"><rect width="6" height="6"/></g>
<g transform="translate(924,770) scale(3.7766666666667)"><rect width="6" height="6"/></g>
<g transform="translate(242,792) scale(3.7766666666667)"><rect width="6" height="6"/></g>
<g transform="translate(264,792) scale(3.7766666666667)"><rect width="6" height="6"/></g>
<g transform="translate(286,792) scale(3.7766666666667)"><rect width="6" height="6"/></g>
<g transform="translate(352,792) scale(3.7766666666667)"><rect width="6" height="6"/></g>
<g transform="translate(374,792) scale(3.7766666666667)"><rect width="6" height="6"/></g>
<g transform="translate(484,792) scale(3.7766666666667)"><rect width="6" height="6"/></g>
<g transform="translate(506,792) scale(3.7766666666667)"><rect width="6" height="6"/></g>
<g transform="translate(638,792) scale(3.7766666666667)"><rect width="6" height="6"/></g>
<g transform="translate(660,792) scale(3.7766666666667)"><rect width="6" height="6"/></g>
<g transform="translate(704,792) scale(3.7766666666667)"><rect width="6" height="6"/></g>
<g transform="translate(726,792) scale(3.7766666666667)"><rect width="6" height="6"/></g>
<g transform="translate(748,792) scale(3.7766666666667)"><rect width="6" height="6"/></g>
<g transform="translate(792,792) scale(3.7766666666667)"><rect width="6" height="6"/></g>
<g transform="translate(836,792) scale(3.7766666666667)"><rect width="6" height="6"/></g>
<g transform="translate(858,792) scale(3.7766666666667)"><rect width="6" height="6"/></g>
<g transform="translate(264,814) scale(3.7766666666667)"><rect width="6" height="6"/></g>
<g transform="translate(308,814) scale(3.7766666666667)"><rect width="6" height="6"/></g>
<g transform="translate(352,814) scale(3.7766666666667)"><rect width="6" height="6"/></g>
<g transform="translate(374,814) scale(3.7766666666667)"><rect width="6" height="6"/></g>
<g transform="translate(462,814) scale(3.7766666666667)"><rect width="6" height="6"/></g>
<g transform="translate(528,814) scale(3.7766666666667)"><rect width="6" height="6"/></g>
<g transform="translate(594,814) scale(3.7766666666667)"><rect width="6" height="6"/></g>
<g transform="translate(660,814) scale(3.7766666666667)"><rect width="6" height="6"/></g>
<g transform="translate(726,814) scale(3.7766666666667)"><rect width="6" height="6"/></g>
<g transform="translate(748,814) scale(3.7766666666667)"><rect width="6" height="6"/></g>
<g transform="translate(836,814) scale(3.7766666666667)"><rect width="6" height="6"/></g>
<g transform="translate(858,814) scale(3.7766666666667)"><rect width="6" height="6"/></g>
<g transform="translate(924,814) scale(3.7766666666667)"><rect width="6" height="6"/></g>
<g transform="translate(220,836) scale(3.7766666666667)"><rect width="6" height="6"/></g>
<g transform="translate(242,836) scale(3.7766666666667)"><rect width="6" height="6"/></g>
<g transform="translate(286,836) scale(3.7766666666667)"><rect width="6" height="6"/></g>
<g transform="translate(330,836) scale(3.7766666666667)"><rect width="6" height="6"/></g>
<g transform="translate(374,836) scale(3.7766666666667)"><rect width="6" height="6"/></g>
<g transform="translate(440,836) scale(3.7766666666667)"><rect width="6" height="6"/></g>
<g transform="translate(484,836) scale(3.7766666666667)"><rect width="6" height="6"/></g>
<g transform="translate(550,836) scale(3.7766666666667)"><rect width="6" height="6"/></g>
<g transform="translate(572,836) scale(3.7766666666667)"><rect width="6" height="6"/></g>
<g transform="translate(594,836) scale(3.7766666666667)"><rect width="6" height="6"/></g>
<g transform="translate(704,836) scale(3.7766666666667)"><rect width="6" height="6"/></g>
<g transform="translate(748,836) scale(3.7766666666667)"><rect width="6" height="6"/></g>
<g transform="translate(770,836) scale(3.7766666666667)"><rect width="6" height="6"/></g>
<g transform="translate(792,836) scale(3.7766666666667)"><rect width="6" height="6"/></g>
<g transform="translate(814,836) scale(3.7766666666667)"><rect width="6" height="6"/></g>
<g transform="translate(836,836) scale(3.7766666666667)"><rect width="6" height="6"/></g>
<g transform="translate(880,836) scale(3.7766666666667)"><rect width="6" height="6"/></g>
<g transform="translate(924,836) scale(3.7766666666667)"><rect width="6" height="6"/></g>
<g transform="translate(220,858) scale(3.7766666666667)"><rect width="6" height="6"/></g>
<g transform="translate(242,858) scale(3.7766666666667)"><rect width="6" height="6"/></g>
<g transform="translate(330,858) scale(3.7766666666667)"><rect width="6" height="6"/></g>
<g transform="translate(396,858) scale(3.7766666666667)"><rect width="6" height="6"/></g>
<g transform="translate(484,858) scale(3.7766666666667)"><rect width="6" height="6"/></g>
<g transform="translate(528,858) scale(3.7766666666667)"><rect width="6" height="6"/></g>
<g transform="translate(660,858) scale(3.7766666666667)"><rect width="6" height="6"/></g>
<g transform="translate(748,858) scale(3.7766666666667)"><rect width="6" height="6"/></g>
<g transform="translate(770,858) scale(3.7766666666667)"><rect width="6" height="6"/></g>
<g transform="translate(814,858) scale(3.7766666666667)"><rect width="6" height="6"/></g>
<g transform="translate(858,858) scale(3.7766666666667)"><rect width="6" height="6"/></g>
<g transform="translate(880,858) scale(3.7766666666667)"><rect width="6" height="6"/></g>
<g transform="translate(924,858) scale(3.7766666666667)"><rect width="6" height="6"/></g>
<g transform="translate(220,880) scale(3.7766666666667)"><rect width="6" height="6"/></g>
<g transform="translate(242,880) scale(3.7766666666667)"><rect width="6" height="6"/></g>
<g transform="translate(286,880) scale(3.7766666666667)"><rect width="6" height="6"/></g>
<g transform="translate(330,880) scale(3.7766666666667)"><rect width="6" height="6"/></g>
<g transform="translate(352,880) scale(3.7766666666667)"><rect width="6" height="6"/></g>
<g transform="translate(374,880) scale(3.7766666666667)"><rect width="6" height="6"/></g>
<g transform="translate(440,880) scale(3.7766666666667)"><rect width="6" height="6"/></g>
<g transform="translate(506,880) scale(3.7766666666667)"><rect width="6" height="6"/></g>
<g transform="translate(528,880) scale(3.7766666666667)"><rect width="6" height="6"/></g>
<g transform="translate(550,880) scale(3.7766666666667)"><rect width="6" height="6"/></g>
<g transform="translate(572,880) scale(3.7766666666667)"><rect width="6" height="6"/></g>
<g transform="translate(594,880) scale(3.7766666666667)"><rect width="6" height="6"/></g>
<g transform="translate(638,880) scale(3.7766666666667)"><rect width="6" height="6"/></g>
<g transform="translate(660,880) scale(3.7766666666667)"><rect width="6" height="6"/></g>
<g transform="translate(726,880) scale(3.7766666666667)"><rect width="6" height="6"/></g>
<g transform="translate(748,880) scale(3.7766666666667)"><rect width="6" height="6"/></g>
<g transform="translate(770,880) scale(3.7766666666667)"><rect width="6" height="6"/></g>
<g transform="translate(792,880) scale(3.7766666666667)"><rect width="6" height="6"/></g>
<g transform="translate(814,880) scale(3.7766666666667)"><rect width="6" height="6"/></g>
<g transform="translate(836,880) scale(3.7766666666667)"><rect width="6" height="6"/></g>
<g transform="translate(880,880) scale(3.7766666666667)"><rect width="6" height="6"/></g>
<g transform="translate(902,880) scale(3.7766666666667)"><rect width="6" height="6"/></g>
<g transform="translate(264,902) scale(3.7766666666667)"><rect width="6" height="6"/></g>
<g transform="translate(308,902) scale(3.7766666666667)"><rect width="6" height="6"/></g>
<g transform="translate(396,902) scale(3.7766666666667)"><rect width="6" height="6"/></g>
<g transform="translate(418,902) scale(3.7766666666667)"><rect width="6" height="6"/></g>
<g transform="translate(440,902) scale(3.7766666666667)"><rect width="6" height="6"/></g>
<g transform="translate(462,902) scale(3.7766666666667)"><rect width="6" height="6"/></g>
<g transform="translate(484,902) scale(3.7766666666667)"><rect width="6" height="6"/></g>
<g transform="translate(506,902) scale(3.7766666666667)"><rect width="6" height="6"/></g>
<g transform="translate(616,902) scale(3.7766666666667)"><rect width="6" height="6"/></g>
<g transform="translate(748,902) scale(3.7766666666667)"><rect width="6" height="6"/></g>
<g transform="translate(770,902) scale(3.7766666666667)"><rect width="6" height="6"/></g>
<g transform="translate(836,902) scale(3.7766666666667)"><rect width="6" height="6"/></g>
<g transform="translate(858,902) scale(3.7766666666667)"><rect width="6" height="6"/></g>
<g transform="translate(902,902) scale(3.7766666666667)"><rect width="6" height="6"/></g>
<g transform="translate(264,924) scale(3.7766666666667)"><rect width="6" height="6"/></g>
<g transform="translate(308,924) scale(3.7766666666667)"><rect width="6" height="6"/></g>
<g transform="translate(352,924) scale(3.7766666666667)"><rect width="6" height="6"/></g>
<g transform="translate(374,924) scale(3.7766666666667)"><rect width="6" height="6"/></g>
<g transform="translate(462,924) scale(3.7766666666667)"><rect width="6" height="6"/></g>
<g transform="translate(506,924) scale(3.7766666666667)"><rect width="6" height="6"/></g>
<g transform="translate(572,924) scale(3.7766666666667)"><rect width="6" height="6"/></g>
<g transform="translate(594,924) scale(3.7766666666667)"><rect width="6" height="6"/></g>
<g transform="translate(616,924) scale(3.7766666666667)"><rect width="6" height="6"/></g>
<g transform="translate(638,924) scale(3.7766666666667)"><rect width="6" height="6"/></g>
<g transform="translate(660,924) scale(3.7766666666667)"><rect width="6" height="6"/></g>
<g transform="translate(682,924) scale(3.7766666666667)"><rect width="6" height="6"/></g>
<g transform="translate(770,924) scale(3.7766666666667)"><rect width="6" height="6"/></g>
<g transform="translate(792,924) scale(3.7766666666667)"><rect width="6" height="6"/></g>
<g transform="translate(814,924) scale(3.7766666666667)"><rect width="6" height="6"/></g>
<g transform="translate(836,924) scale(3.7766666666667)"><rect width="6" height="6"/></g>
<g transform="translate(880,924) scale(3.7766666666667)"><rect width="6" height="6"/></g>
</g></g></mask></defs>
<rect width="990" height="990" fill="#030303" x="0" y="0" />
<rect x="0" y="0" width="990" height="990" mask="url(#qrmask)" fill="#ffffff" />
<g><g transform="translate(44,44)"  fill="#ffffff"><g transform="scale(11)"><path d="M0,0v14h14V0H0z M12,12H2V2h10V12z"/></g></g>
<g transform="translate(88,88)"  fill="#ffffff"><g transform="scale(11)"><rect width="6" height="6"/></g></g>
<g transform="translate(792,44)"  fill="#ffffff"><g transform="scale(11)"><path d="M0,0v14h14V0H0z M12,12H2V2h10V12z"/></g></g>
<g transform="translate(836,88)"  fill="#ffffff"><g transform="scale(11)"><rect width="6" height="6"/></g></g>
<g transform="translate(44,792)"  fill="#ffffff"><g transform="scale(11)"><path d="M0,0v14h14V0H0z M12,12H2V2h10V12z"/></g></g>
<g transform="translate(88,836)"  fill="#ffffff"><g transform="scale(11)"><rect width="6" height="6"/></g></g></g>
</svg>